<!DOCTYPE svg PUBLIC "-//W3C//DTD SVG 1.1//EN" "http://www.w3.org/Graphics/SVG/1.1/DTD/svg11.dtd">
<!-- Uploaded to: SVG Repo, www.svgrepo.com, Transformed by: SVG Repo Mixer Tools -->
<svg width="198px" height="198px" viewBox="-6.4 -6.4 76.80 76.80" xmlns="http://www.w3.org/2000/svg" xmlns:xlink="http://www.w3.org/1999/xlink" aria-hidden="true" role="img" class="iconify iconify--emojione" preserveAspectRatio="xMidYMid meet" fill="#ffffff" stroke="#ffffff" stroke-width="0.512">
<g id="SVGRepo_bgCarrier" stroke-width="0"/>
<g id="SVGRepo_tracerCarrier" stroke-linecap="round" stroke-linejoin="round" stroke="#fffff" stroke-width="5.3759999999999994">
<path d="M31.9 2C18.8 2 7.7 10.4 3.6 22h56.6C56.1 10.4 45 2 31.9 2z" fill="#3e4347"/>
<path d="M31.9 62c13.1 0 24.2-8.3 28.3-20H3.6c4.1 11.7 15.2 20 28.3 20z" fill="#ffe62e"/>
<path d="M3.6 22c-1.1 3.1-1.7 6.5-1.7 10s.6 6.9 1.7 10h56.6c1.1-3.1 1.7-6.5 1.7-10s-.6-6.9-1.7-10H3.6" fill="#ed4c5c"/>
</g>
<g id="SVGRepo_iconCarrier">
<path d="M31.9 2C18.8 2 7.7 10.4 3.6 22h56.6C56.1 10.4 45 2 31.9 2z" fill="#3e4347"/>
<path d="M31.9 62c13.1 0 24.2-8.3 28.3-20H3.6c4.1 11.7 15.2 20 28.3 20z" fill="#ffe62e"/>
<path d="M3.6 22c-1.1 3.1-1.7 6.5-1.7 10s.6 6.9 1.7 10h56.6c1.1-3.1 1.7-6.5 1.7-10s-.6-6.9-1.7-10H3.6" fill="#ed4c5c"/>
</g>
</svg>